<svg id="Layer_1" data-name="Layer 1" xmlns="http://www.w3.org/2000/svg" viewBox="0 0 540.18 172.48"><defs><style>.cls-1{fill:none;stroke:#1d1d1b;stroke-linecap:round;stroke-miterlimit:10;stroke-width:10.42px;}.cls-2{font-size:75px;fill:#1d1d1b;font-family:GillSansMT-Bold, Gill Sans MT;font-weight:700;}</style></defs><title>LOGO</title><path class="cls-1" d="M31.41,381.83a42.81,42.81,0,0,0-.75,8.12A44.82,44.82,0,0,0,112,415.89c.48-.66.93-1.35,1.38-2.08A44.57,44.57,0,0,0,120.3,390a42.24,42.24,0,0,0-.67-7.67,44.55,44.55,0,0,0-7.87-18.67c-.45-.66-3.64-4.44-4.84-5.62,0,0,0,0,0-.06-1.08-1.05-2.2-2-3.4-3m117.9,26.93a44.84,44.84,0,0,1-80.23,34.63c-.24-.33-.48-.66-.69-1a21.1,21.1,0,0,1-1.18-1.78A44.3,44.3,0,0,1,132.44,390a43.16,43.16,0,0,1,.66-7.67,42.54,42.54,0,0,1,2.47-8.75m85.82,8.33a89.87,89.87,0,0,0-11.06-.66,93.55,93.55,0,0,0-54.2,17.19v0a91.39,91.39,0,0,0-16.84,15.3c-.42.49-.81.94-1.2,1.42-1,1.2-2,2.43-2.91,3.72h0a89.57,89.57,0,0,0-8.78,14.19.23.23,0,0,0-.06.12,94,94,0,0,0,0,83.81m0,0s0-.09.06-.12a94,94,0,0,0,0-83.57s0-.09-.06-.12a94,94,0,0,0-84.05-52,92.32,92.32,0,0,0-10.85.63M154,375.64a39.74,39.74,0,0,0-18.39-2.11M154,375.64m-27.59-16.2a6.78,6.78,0,0,1,.78,0,29.91,29.91,0,0,1,11.51,2.28,29.13,29.13,0,0,1,2.77,1.29A30.56,30.56,0,0,1,154,375.61v0m2.17,22.78v0m-20.95,20.47h0m-8.78-59.42c-2.29,0-4.57,0-7,0a30.14,30.14,0,0,1-13.64-3.25,23.5,23.5,0,0,1-2.29-1.29m3.4,3s0,0,0,.06" transform="translate(-25.45 -349.72)"/><text class="cls-2" transform="translate(216.37 105.8) scale(1.1 1)">ANKA</text></svg>